<?xml version="1.0" encoding="utf-8"?>
<svg width="12" height="17" viewBox="0 0 12 17" fill="none" xmlns="http://www.w3.org/2000/svg">
<path d="M6.00002 10.6667C7.38335 10.6667 8.49169 9.55002 8.49169 8.16669L8.50002 3.16669C8.50002 1.78335 7.38335 0.666687 6.00002 0.666687C4.61669 0.666687 3.50002 1.78335 3.50002 3.16669V8.16669C3.50002 9.55002 4.61669 10.6667 6.00002 10.6667ZM10.4167 8.16669C10.4167 10.6667 8.30002 12.4167 6.00002 12.4167C3.70002 12.4167 1.58335 10.6667 1.58335 8.16669H0.166687C0.166687 11.0084 2.43335 13.3584 5.16669 13.7667V16.5H6.83335V13.7667C9.56669 13.3667 11.8334 11.0167 11.8334 8.16669H10.4167Z" fill="#B9BBBE"/>
</svg>
